<?xml version="1.0" encoding="UTF-8"?>
<svg id="Layer_1" xmlns="http://www.w3.org/2000/svg" version="1.1" viewBox="0 0 341.9 313.3">
  <!-- Generator: Adobe Illustrator 29.8.2, SVG Export Plug-In . SVG Version: 2.1.1 Build 3)  -->
  <defs>
    <style>
      .st0 {
        fill: #00a651;
      }

      .st0, .st1, .st2, .st3, .st4 {
        fill-rule: evenodd;
      }

      .st1 {
        fill: #fff;
      }

      .st2 {
        fill: #231f20;
      }

      .st3 {
        fill: #6f420b;
      }

      .st4 {
        fill: #ec008c;
      }
    </style>
  </defs>
  <path class="st1" d="M207.2,219.2l-.3-.9v.9h.3ZM223,219.3v-1.1l-.4,1.1h.4ZM292.2,215.1v-29.8l-2.1-.2v-11h25.8v11l-2.1.2v34.1l2.1.2v11.1h-44.8v-10h-8.8v10h-41.3v-7.3l-6.1,10.7-5.9-10.5v7.1h-43.2v-7.9c-3.1-3.9-6.2-7.8-9.3-11.8v8.4l2.1.2v11.1h-42.9v-10h-8.8v10h-40.6v-7.9c-3.1-3.9-6.2-7.8-9.3-11.8v8.4l2.1.2v11.1h-24.6v-11.1l2.1-.2v-34.1l-2.1-.2v-11h28.4v8.9l5.5,7v-4.8l-1.6-.2v-10.8h24.1v11l-2.1.2v24.9l7.9-24.8v-11.4h30v10.8h0l9.5,28v-27.6l-2.1-.2v-11h28.4v8.9l5.5,7v-4.8l-1.6-.2v-10.8h49v11.1h-.2l.5,1.3.5-1.3h-.1v-11.1h30.5v11.1l-2.1.2v24.7l7.8-24.6v-11.4h30v10.8h0l10.2,30.2h-.3Z"/>
  <path class="st4" d="M295.4,224.4c1.4-.1,2.1-.8,2.1-2.1v-39.9c0-1.2-.7-1.9-2.1-2.1v-1h15.2v1c-1.4.1-2.1.8-2.1,2.1v39.9c0,1.3.7,2,2.1,2.1v1h-15.2v-1h0ZM273.3,208.3h0l-7-20.7h0l-6.4,20.6h13.4ZM290.9,225.4h-14.6v-1c.9,0,1.4-.4,1.4-.9s-.2-.9-.6-2.1l-1.9-6.1h-17.2l-1.9,6.1c-.3,1.2-.5,1.9-.5,2.3s.5.7,1.4.7v1h-13.2v-1c.9,0,1.6-1.1,2.3-3l11.8-37.2c.6-1.9.9-2.9.9-3.1,0-.5-.5-.8-1.6-.8v-1h19.4v1c-.9.1-1.4.5-1.4,1s.4,1.4,1.1,3.6l12.1,35.6c.8,2.6,1.7,3.9,2.5,3.9v1h0ZM241,225.4h-14.7v-1c1.4,0,2.1-.7,2.1-2.1v-31.9h0l-13.4,34-13.3-34.3v32.3c0,1.4.7,2.1,2.1,2.1v1h-13v-1c1.4,0,2.1-.8,2.1-2.1v-39.9c0-1.2-.7-1.9-2.1-2.1v-1h19.2v1c-1.1,0-1.7.6-1.7,1.4s.2.9.6,2l6.5,17,6.2-15.1c.9-2.1,1.3-3.4,1.3-4,0-.9-.6-1.3-1.7-1.4v-1h19.9v1c-1.4.1-2.1.8-2.1,2.1v39.9c0,1.3.7,2,2.1,2.1v1h-.1ZM185,225.4h-14v-1c1.1,0,1.7-.3,1.7-1s-.9-1.5-2.7-3.8c-2.7-3.4-9-11.4-18.9-24.1h0v26.8c0,1.3.7,2,2.1,2.1v1h-14.1v-1c1.4-.1,2.1-.8,2.1-2.1v-39.9c0-1.2-.7-1.9-2.1-2.1v-1h17.8v1c-1.4,0-2.1.5-2.1,1.2s1,1.8,2.9,4.4l15.3,19.4h0v-22.8c0-1.2-.5-1.9-1.6-2.1v-1h13.5v1c-1.4.1-2.1.8-2.1,2.1v39.9c0,.8.1,1.3.4,1.6.2.2.8.4,1.7.5v1h.1ZM117.8,208.3h0l-7-20.7h0l-6.4,20.6h13.4ZM135.4,225.4h-14.6v-1c.9,0,1.4-.4,1.4-.9s-.2-.9-.6-2.1l-1.9-6.1h-17.2l-1.9,6.1c-.3,1.2-.5,1.9-.5,2.3s.5.7,1.4.7v1h-13.2v-1c.9,0,1.6-1.1,2.3-3l11.8-37.2c.6-1.9.9-2.9.9-3.1,0-.5-.5-.8-1.6-.8v-1h19.4v1c-.9.1-1.4.5-1.4,1s.4,1.4,1.1,3.6l12.1,35.6c.8,2.6,1.7,3.9,2.5,3.9v1h0ZM85.4,225.4h-14v-1c1.1,0,1.7-.3,1.7-1s-.9-1.5-2.7-3.8c-2.7-3.4-9-11.4-18.9-24.1h0v26.8c0,1.3.7,2,2.1,2.1v1h-14.1v-1c1.4-.1,2.1-.8,2.1-2.1v-39.9c0-1.2-.7-1.9-2.1-2.1v-1h17.8v1c-1.4,0-2.1.5-2.1,1.2s1,1.8,2.9,4.4l15.3,19.4h0v-22.8c0-1.2-.5-1.9-1.6-2.1v-1h13.5v1c-1.4.1-2.1.8-2.1,2.1v39.9c0,.8,0,1.3.4,1.6s.8.4,1.7.5v1h0Z"/>
  <path class="st2" d="M275.6,272.1l-10.8-20.1v17.8c0,.4.1.8.3,1,.2.2.6.4,1.1.6v.7h-8.6v-.7c.5-.1.9-.3,1.1-.6.2-.2.3-.6.3-1v-24.6c0-.4-.1-.8-.3-1s-.6-.4-1.1-.6v-.7h11.3v.7c-.7.2-1,.6-1,1.2s.1.6.3,1l8,14.9,8.1-14.7c.4-.7.5-1.1.5-1.4,0-.6-.4-.9-1.1-1v-.7h11.1v.7c-.5.1-.9.3-1.1.6-.2.2-.3.6-.3,1v24.6c0,.4.1.8.3,1,.2.2.6.4,1.1.6v.7h-9.2v-.7c.5-.1.9-.3,1.1-.5s.3-.6.3-1v-17.8l-11.4,20.1h0ZM241.2,260.7l-4.7-10.3-4.8,10.3h9.5ZM243.1,264.7h-13.3l-2,4.1c-.3.6-.4,1-.4,1.3,0,.6.5,1.1,1.4,1.3v.7h-9.7v-.7c.6-.1,1-.3,1.3-.6.3-.3.6-.8,1-1.7l10.8-22.3c.3-.7.5-1.3.5-1.7,0-.7-.4-1.1-1.3-1.4v-.7h10.4v.7c-.9.2-1.3.7-1.3,1.3s.1.9.4,1.4l11.2,22.4c.5,1,.9,1.6,1.3,1.9.4.3.8.6,1.4.7v.7h-10.9v-.7c.9-.2,1.4-.6,1.4-1.3s-.1-.7-.4-1.3l-2-4.1h.2ZM196.6,267.3h18.1c.4,0,.8-.1,1-.3.2-.2.4-.5.6-1.1h.7v7.5h-.7c-.1-.5-.3-.9-.6-1.1-.2-.2-.6-.3-1-.3h-25.9v-.7c.5-.1.9-.3,1.1-.6.2-.2.3-.6.3-1v-24.5c0-.4-.1-.8-.3-1s-.6-.4-1.1-.6v-.7h9.2v.7c-.5.1-.9.3-1.1.5-.2.2-.3.6-.3,1v22.2ZM172.5,260.7l-4.7-10.3-4.8,10.3h9.5ZM174.3,264.7h-13.3l-2,4.1c-.3.6-.4,1-.4,1.3,0,.6.5,1.1,1.4,1.3v.7h-9.7v-.7c.6-.1,1-.3,1.3-.6.3-.3.6-.8,1-1.7l10.8-22.3c.3-.7.5-1.3.5-1.7,0-.7-.4-1.1-1.3-1.4v-.7h10.4v.7c-.9.2-1.3.7-1.3,1.3s.1.9.4,1.4l11.2,22.4c.5,1,.9,1.6,1.3,1.9.4.3.8.6,1.4.7v.7h-10.9v-.7c.9-.2,1.4-.6,1.4-1.3s-.1-.7-.4-1.3l-2-4.1h.2ZM130,255.5h9.8c2,0,3.3-.2,4.1-.6.5-.3.9-.7,1.2-1.3s.5-1.2.5-1.9-.2-1.3-.5-1.9c-.3-.6-.7-1-1.2-1.3-.8-.4-2.1-.6-4.1-.6h-9.8v7.7h0ZM130,260.3v9.6c0,.4.1.8.3,1s.6.4,1.1.5v.7h-9.2v-.7c.5-.1.9-.3,1.1-.6.2-.2.3-.6.3-1v-24.6c0-.4,0-.8-.3-1-.2-.2-.6-.4-1.1-.6v-.7h18.4c2.1,0,3.8.1,5.1.4,1.3.3,2.4.8,3.3,1.5,1,.7,1.8,1.7,2.3,2.8.6,1.2.8,2.5.8,3.9,0,2-.5,3.7-1.6,5.2-.9,1.3-2.1,2.2-3.6,2.7s-3.6.8-6.3.8h-10.6ZM96.3,255.5h9.8c2,0,3.3-.2,4.1-.6.5-.3.9-.7,1.2-1.3.3-.6.5-1.2.5-1.9s-.2-1.3-.5-1.9c-.3-.6-.7-1-1.2-1.3-.8-.4-2.1-.6-4.1-.6h-9.8v7.7h0ZM96.3,260.3v9.6c0,.4,0,.8.3,1,.2.2.6.4,1.1.5v.7h-9.2v-.7c.5-.1.9-.3,1.1-.6.2-.2.3-.6.3-1v-24.6c0-.4,0-.8-.3-1-.2-.2-.6-.4-1.1-.6v-.7h18.4c2.1,0,3.8.1,5.1.4,1.3.3,2.4.8,3.3,1.5,1,.7,1.8,1.7,2.3,2.8.6,1.2.8,2.5.8,3.9,0,2-.5,3.7-1.6,5.2-.9,1.3-2.1,2.2-3.6,2.7s-3.6.8-6.3.8h-10.6ZM72.2,260.7l-4.7-10.3-4.8,10.3h9.5ZM74,264.7h-13.3l-2,4.1c-.3.6-.4,1-.4,1.3,0,.6.5,1.1,1.4,1.3v.7h-9.7v-.7c.6-.1,1-.3,1.3-.6.3-.3.6-.8,1-1.7l10.8-22.3c.3-.7.5-1.3.5-1.7,0-.7-.4-1.1-1.3-1.4v-.7h10.4v.7c-.9.2-1.3.7-1.3,1.3s0,.9.4,1.4l11.2,22.4c.5,1,.9,1.6,1.3,1.9s.8.6,1.4.7v.7h-10.9v-.7c.9-.2,1.4-.6,1.4-1.3s0-.7-.4-1.3l-2-4.1h.2Z"/>
  <path class="st1" d="M142.7,141.7c-10.7-.5-23-4.3-27.1-13.8-1.3-3.1-2.4-6.4-3.4-9.6-1.5-4.6-3.6-11.8-6.7-15.5l-3.8-4.5,5.7-1.7c5.4-1.6,10.9-1.8,15.9-.4-4.7-9.3-7.3-21.2-1.4-29.2,2-2.7,4.2-5.3,6.5-7.9,3.2-3.6,8.3-9.1,9.9-13.7l1.9-5.6,4.4,4c4.3,3.9,7.3,8.8,8.7,14,1.5-2.4,3.2-4.6,5-6.6,5-5.6,12-10.5,19.8-9.7,3.4.4,6.7,1,10,1.7,4.7.9,12.1,2.6,16.8,1.7l5.8-1.2-1.3,5.8c-1.2,5.5-3.7,10.4-7.4,14.1,10.6.5,22.6,4.2,26.7,13.4,1.4,3.1,2.5,6.3,3.6,9.5,1.5,4.6,3.7,11.8,6.9,15.4l3.9,4.5-5.6,1.8c-5.5,1.8-11.2,2-16.4.5,4.9,9.4,7.8,21.6,1.8,29.9-2,2.7-4.2,5.3-6.5,7.9-3.2,3.6-8.3,9.1-9.8,13.7l-1.9,5.6-4.4-4c-4.4-4-7.4-8.9-8.7-14.2-1.6,2.5-3.4,4.9-5.3,7-5,5.6-12,10.5-19.9,9.6-3.4-.4-6.7-1-10-1.7-4.7-1-12.1-2.7-16.8-1.7l-5.8,1.1,1.3-5.8c1.3-5.7,4-10.7,7.8-14.4"/>
  <path class="st0" d="M219.6,136.2c-5.5,7.6-14.4,15.3-16.8,22.6-6.4-5.8-11.5-16.2-5.4-26.7,5.5-9.4,12.7-17.3,15.6-28.8,5.4,6.8,13.6,23.3,6.6,32.9M212.6,111.2c-4.2,13.7-24.9,27.8-10.4,43.5,3.3-8.8,13.8-15.6,16.4-22,2.7-6.7-.6-16.5-4.8-23.1,2.6,5.6.5,15.2-3.3,18.4,3.4-5.7,3.4-12.2,2.1-16.8Z"/>
  <path class="st0" d="M225,78.5c3.8,8.6,6,20.1,11.1,25.9-8.2,2.6-19.8,1.8-25.8-8.7-5.4-9.5-8.5-19.7-17.1-28,8.6-1.2,27,0,31.7,10.8M199.8,71.9c9.8,10.5,11.5,35.5,32.4,30.9-5.9-7.3-6.6-19.7-10.8-25.2-4.4-5.7-14.5-7.7-22.4-7.5,6.1.5,13.4,7.2,14.3,12.1-3.3-5.8-8.8-9-13.5-10.2h0Z"/>
  <path class="st0" d="M177.5,45.3c9.4,1,20.4,4.8,28,3.3-1.8,8.4-8.3,18.1-20.4,18-10.9,0-21.3-2.4-32.7.8,3.2-8.1,13.5-23.4,25.2-22.1M159.2,63.8c14-3.2,36.6,7.7,42.9-12.7-9.3,1.5-20.4-4.1-27.2-3.2-7.2,1-14,8.7-17.7,15.7,3.5-5.1,12.9-8,17.6-6.4-6.7,0-12.2,3.1-15.6,6.6h0Z"/>
  <path class="st0" d="M124.9,69.2c5.5-7.6,14.4-15.3,16.9-22.6,6.4,5.8,11.5,16.2,5.4,26.7-5.5,9.4-12.8,17.3-15.6,28.8-5.4-6.8-13.5-23.3-6.6-32.9M131.9,94.3c4.2-13.7,25-27.8,10.4-43.5-3.4,8.8-13.8,15.6-16.4,22-2.7,6.7.6,16.5,4.8,23.1-2.6-5.6-.5-15.2,3.3-18.4-3.4,5.7-3.4,12.2-2.1,16.8h0Z"/>
  <path class="st0" d="M119.2,126.3c-3.7-8.7-5.8-20.2-10.8-26.1,8.3-2.5,19.8-1.6,25.7,9.1,5.3,9.6,8.3,19.8,16.7,28.2-8.6,1.1-27-.3-31.6-11.2M144.3,133.2c-9.6-10.6-11.1-35.7-32-31.3,5.8,7.4,6.3,19.8,10.5,25.3,4.4,5.8,14.4,7.9,22.3,7.8-6.1-.6-13.3-7.4-14.1-12.3,3.2,5.8,8.7,9.2,13.3,10.4h0Z"/>
  <path class="st0" d="M166.7,160.3c-9.4-1-20.4-4.9-28-3.4,1.9-8.4,8.3-18,20.5-17.9,10.9,0,21.3,2.5,32.7-.7-3.3,8-13.5,23.3-25.2,22.1M185,141.9c-14,3.2-36.5-7.9-43,12.6,9.3-1.5,20.4,4.2,27.2,3.3,7.2-1,14-8.7,17.7-15.6-3.5,5-13,7.9-17.6,6.3,6.7,0,12.2-3.1,15.6-6.5h.1Z"/>
  <path class="st0" d="M169.1,88.2c-4.8-1.7-11.2-2.4-14.5-5-1.3,5-.6,11.7,5.3,14.8,6.3,3.2,14.9,4.5,14.7,10.7h1.3c.3-5-.4-9.6-.3-14.6,0-6.2.9-4.5,9.6-9.7,4.1-2.4,4.6-7.7,3.7-11.5-2.3,2.1-6.7,2.8-10,4.3-3.6,1.6-4.6,7.9-4.6,12.2v4.4c-1-2.6-2.6-4.8-5-5.7M176.5,87.6c1.3-1.1,3-1.9,4.5-2.7,1.1-.5,2.1-1.1,3.2-1.7,2.5-1.5,3.5-4.5,3.1-7.5-1.4,1-3.5,1.5-4.9,2-.9.3-1.9.6-2.8,1-.3,0-.5.3-.7.5-1.9,1.6-2.8,5.5-2.9,8.5.2-1.4,1.3-3,2.2-3.9s1.4-1.1,2-1.2c-.6.2-1.2.7-1.9,1.6s-1.5,2.2-1.8,3.4h0ZM173,102.5c-2.1-1.5-4.6-2.6-7.1-3.6-1.7-.7-3.4-1.4-5.1-2.2-4-2-5.7-6.5-5-11,2.2,1.3,5.6,2.2,7.9,2.7,1.6.4,4.3,1,5.6,1.9,3,2.1,4.4,7.9,4.4,12.2-.3-2-2-4.3-3.3-5.5-1.4-1.2-2.2-1.5-3.3-1.6,1,.3,1.9.9,3,2.1s2.3,3.1,2.7,4.9h.2Z"/>
  <path class="st3" d="M149.6,122.8c7.2-13.4,8.7-13.6,23-14.1,2.9,0,5.1-1.3,6.2-2.1.5,1.1,1.7,9.8-9.3,8.8-.4,0,12.6,3.7,18.3-5.9,1.1-1.8,4.3-5.8,8.6-3.6-8.2,14.5-7.1,17.7-25.5,19.7-8.6.9-14.8,6.2-14.8,6.2-1.5-.9-5.1-5.5-6.5-9M156.6,129.6c1-.7,2-1.3,3-1.9,3.5-1.9,7.3-3.2,11.2-3.6,17-1.9,16.3-4.4,23.5-17.4-2.3-.3-4.5,2.5-5,3.6-4.3,6.3-10.5,8.6-20,6.5-.8-.4-1.3-1-1.1-1.6.2-.7.8-1.2,1.6-1.1,4.8.2,7.3-.2,8.1-4.9-1.6.8-3.3,1.3-5.1,1.3-13.6.5-14.9.6-21.2,12.2,1.1,2.7,3.2,5.6,5,7h0Z"/>
</svg>